<?xml version="1.0" encoding="iso-8859-1"?>
<!-- Generator: Adobe Illustrator 19.0.0, SVG Export Plug-In . SVG Version: 6.00 Build 0)  -->
<svg version="1.1" id="Capa_1" xmlns="http://www.w3.org/2000/svg" xmlns:xlink="http://www.w3.org/1999/xlink" x="0px" y="0px"
	 viewBox="0 0 436.245 436.245" style="enable-background:new 0 0 436.245 436.245;" xml:space="preserve">
<path style="fill:#4DCFE0;" d="M386.09,67.657c22.465,22.988,33.959,53.29,33.959,84.114c0,30.302-11.494,60.604-34.482,84.114
	L217.861,403.069L50.155,235.363c-45.976-45.976-45.976-121.731,0-167.706c22.988-22.988,53.29-34.482,84.114-34.482
	c30.302,0,60.604,11.494,84.114,34.482C264.359,21.682,340.114,21.682,386.09,67.657z"/>
<path style="fill:#3A2C51;" d="M217.861,418.743c-4.18,0-7.837-1.567-10.971-4.702L39.184,246.335
	c-52.245-52.245-52.245-137.404,0-189.649c25.078-25.078,59.037-39.184,95.086-39.184c30.825,0,60.082,10.449,84.114,29.257
	c23.51-18.808,52.767-29.257,84.114-29.257c36.049,0,69.486,14.106,95.086,39.184c25.078,25.6,38.661,59.037,38.661,95.086
	c0,35.527-13.584,69.486-39.184,95.086L229.355,414.041C225.698,417.175,222.041,418.743,217.861,418.743z M134.269,48.849
	c-27.69,0-53.812,10.449-73.143,29.78c-40.229,40.229-40.229,105.535,0,145.763l156.735,156.735l156.735-156.212
	c19.331-19.853,29.78-45.453,29.78-73.143s-10.449-53.812-29.257-73.143c-19.331-19.331-44.931-29.78-72.62-29.78
	c-27.69,0-53.29,10.449-72.62,29.78c-6.269,6.269-15.673,6.269-21.943,0C187.559,59.298,161.437,48.849,134.269,48.849z"/>
<g>
</g>
<g>
</g>
<g>
</g>
<g>
</g>
<g>
</g>
<g>
</g>
<g>
</g>
<g>
</g>
<g>
</g>
<g>
</g>
<g>
</g>
<g>
</g>
<g>
</g>
<g>
</g>
<g>
</g>
</svg>
